<svg width="75" height="75" viewBox="0 0 75 75" fill="none" xmlns="http://www.w3.org/2000/svg">
<path d="M32.6342 0.989772V9.43926C32.6342 9.9191 32.8425 10.3781 33.2071 10.7015L59.4874 33.5359L0.833303 33.5359C0.374986 33.5359 0 33.9115 0 34.3705L0 40.6293C0 41.0883 0.374986 41.4638 0.833303 41.4638L59.4874 41.4638L33.2071 64.2983C32.8425 64.6113 32.6342 65.0702 32.6342 65.5605V74.01C32.6342 74.7193 33.4779 75.1053 34.0092 74.6359L73.8515 40.0139C74.212 39.7009 74.5011 39.314 74.6993 38.8794C74.8974 38.4447 75 37.9725 75 37.4947C75 37.0169 74.8974 36.5446 74.6993 36.11C74.5011 35.6754 74.212 35.2884 73.8515 34.9755L34.0092 0.363885C33.4675 -0.105531 32.6342 0.280433 32.6342 0.989772Z" fill="#141414"/>
</svg>
