<svg width="133" height="132" viewBox="0 0 133 132" fill="none" xmlns="http://www.w3.org/2000/svg">
<path d="M57.5199 1.74219V16.6133C57.5199 17.4578 57.8871 18.2656 58.5297 18.8348L104.85 59.0234H1.46875C0.660938 59.0234 0 59.6844 0 60.4922L0 71.5078C0 72.3156 0.660938 72.9765 1.46875 72.9765H104.85L58.5297 113.165C57.8871 113.716 57.5199 114.524 57.5199 115.387V130.258C57.5199 131.506 59.007 132.186 59.9434 131.359L130.168 70.4246C130.803 69.8738 131.313 69.1928 131.662 68.4278C132.012 67.6629 132.192 66.8317 132.192 65.9908C132.192 65.1499 132.012 64.3188 131.662 63.5538C131.313 62.7888 130.803 62.1078 130.168 61.557L59.9434 0.640625C58.9887 -0.185547 57.5199 0.493744 57.5199 1.74219Z" fill="#757575"/>
</svg>
