<svg width="401" height="416" viewBox="0 0 401 416" fill="none" xmlns="http://www.w3.org/2000/svg">
<circle cx="50.7764" cy="148" r="13" fill="white"/>
<circle cx="149.776" cy="93" r="13" fill="white"/>
<circle cx="252.776" cy="148" r="9" fill="white"/>
<circle cx="229.776" cy="57" r="23" fill="white"/>
<circle cx="292.776" cy="328" r="11" fill="white"/>
<circle cx="200.776" cy="301" r="26" fill="white"/>
<path d="M141.27 409.522C179.972 419.414 220.704 417.952 258.597 405.311C296.49 392.671 329.942 369.386 354.954 338.24C379.966 307.095 395.481 269.405 399.644 229.677C403.807 189.949 396.442 149.862 378.43 114.208C360.417 78.5537 332.519 48.8404 298.069 28.6192C263.62 8.39807 224.076 -1.47556 184.164 0.178423C144.253 1.8324 105.662 14.944 73.0033 37.9462C40.3449 60.9484 15.0008 92.8681 0 129.89L5.78329 132.234C20.334 96.3221 44.9178 65.3599 76.5965 43.0478C108.275 20.7357 145.709 8.01742 184.423 6.41306C223.137 4.8087 261.494 14.3861 294.911 34.0006C328.327 53.6152 355.388 82.4371 372.86 117.022C390.332 151.606 397.476 190.49 393.438 229.027C389.4 267.563 374.351 304.122 350.089 334.333C325.827 364.545 293.378 387.131 256.622 399.392C219.866 411.653 180.356 413.071 142.816 403.476L141.27 409.522Z" fill="white"/>
</svg>
