<svg width="132" height="132" viewBox="0 0 132 132" fill="none" xmlns="http://www.w3.org/2000/svg">
<path d="M130.258 57.4362H115.387C114.542 57.4362 113.734 57.8029 113.165 58.4445L72.9766 104.698V1.46661C72.9766 0.659976 72.3157 0 71.5079 0L60.4923 0C59.6845 0 59.0235 0.659976 59.0235 1.46661V104.698L18.8348 58.4445C18.2841 57.8029 17.4763 57.4362 16.6134 57.4362H1.74227C0.493836 57.4362 -0.185461 58.9212 0.640711 59.8561L61.5755 129.979C62.1263 130.613 62.8072 131.122 63.5722 131.471C64.3372 131.82 65.1683 132 66.0093 132C66.8502 132 67.6813 131.82 68.4463 131.471C69.2113 131.122 69.8922 130.613 70.443 129.979L131.359 59.8561C132.186 58.9028 131.506 57.4362 130.258 57.4362Z" fill="#989898"/>
</svg>
